<svg xmlns="http://www.w3.org/2000/svg" width="36" height="36"><path d="M9.4 0c-1 0-1.6.7-1.6 1.7v9h2.6V2.4h17.3V14h2.4V1.5c0-.8-.7-1.5-1.5-1.5zM14 5c-.7 0-1.2.6-1.2 1.3 0 .7.5 1.3 1.2 1.3h10c.6 0 1.2-.6 1.2-1.3 0-.7-.6-1.3-1.3-1.3zm0 4.8c-.6 0-1 .5-1.2 1 .8.2 1.6.7 2.2 1.4l.2.2h8.7c.7 0 1.3-.6 1.3-1.3 0-.7-.6-1.3-1.3-1.3zM3.5 12.4a2 2 0 0 0-2 2.3l.2 1.3h-.1c-.5 0-1 .2-1.2.5-.3.4-.5.8-.4 1.3l2.6 16.5a2 2 0 0 0 2 1.7h26.6c.5 0 .9-.2 1.2-.5.3-.4.4-.8.4-1.3l-2.5-16.9c-.2-.7-.8-1.3-1.6-1.3H16l-2.3-2.7c-.5-.6-1.2-1-2-1zm28.2 1.2l.6 5.9 1.5 10.3L36 15.3c0-.4 0-.9-.4-1.2-.3-.3-.7-.5-1.1-.5z"/></svg>
